<?xml version="1.0" standalone="no"?>
<!DOCTYPE svg PUBLIC "-//W3C//DTD SVG 20010904//EN"
 "http://www.w3.org/TR/2001/REC-SVG-20010904/DTD/svg10.dtd">
<svg version="1.0" xmlns="http://www.w3.org/2000/svg"
 width="260.000000pt" height="260.000000pt" viewBox="0 0 260.000000 260.000000"
 preserveAspectRatio="xMidYMid meet">
<metadata>
Created by potrace 1.14, written by Peter Selinger 2001-2017
</metadata>
<g transform="translate(0.000000,260.000000) scale(0.100000,-0.100000)"
fill="#000000" stroke="none">
<path d="M929 2003 c-2 -6 -29 -13 -59 -16 -30 -2 -63 -7 -72 -12 -10 -4 -25
-4 -34 -1 -10 4 -13 2 -8 -6 5 -8 2 -9 -9 -5 -9 3 -19 1 -23 -4 -3 -6 -15 -9
-25 -6 -11 3 -19 2 -19 -3 0 -4 -14 -10 -31 -14 -16 -3 -60 -20 -97 -37 -37
-17 -73 -32 -79 -32 -7 0 -13 -4 -13 -9 0 -5 -4 -7 -9 -4 -5 3 -12 -1 -15 -10
-4 -9 -13 -14 -22 -10 -8 3 -13 2 -10 -2 3 -5 -4 -15 -16 -23 -22 -15 -30 -23
-54 -54 -9 -11 -12 -14 -8 -6 5 9 3 12 -4 7 -7 -4 -12 -12 -12 -18 0 -5 -9
-23 -21 -39 -14 -21 -19 -42 -18 -76 l2 -48 61 -3 c33 -2 64 -6 70 -9 5 -3 6
-1 2 5 -4 8 0 12 12 12 10 0 28 9 40 20 18 17 20 23 10 34 -7 8 -16 12 -20 10
-4 -2 -10 1 -14 7 -4 7 -3 9 3 6 11 -7 28 22 18 31 -3 3 -5 0 -5 -6 0 -7 -4
-12 -10 -12 -5 0 -6 7 -3 17 5 12 3 14 -7 8 -9 -6 -8 -1 3 14 8 13 13 29 11
36 -6 14 95 107 107 99 4 -2 10 0 14 6 9 15 97 51 112 46 7 -3 13 -1 13 4 0
11 13 14 117 34 40 8 71 10 68 6 -2 -3 2 -7 10 -7 8 0 12 4 10 8 -3 4 18 9 45
11 28 1 50 1 50 -2 0 -3 21 -5 48 -5 62 -1 143 -14 138 -23 -2 -4 12 -8 32 -9
20 -1 38 -7 40 -12 2 -6 12 -11 23 -11 10 0 19 -4 19 -9 0 -5 9 -13 20 -16 11
-4 28 -18 37 -32 18 -28 28 -117 12 -107 -6 3 -8 13 -4 23 4 11 3 13 -5 5 -12
-12 -4 -44 11 -44 5 0 9 -5 9 -11 0 -5 -4 -8 -9 -5 -5 3 -12 -1 -15 -10 -3 -8
-2 -13 2 -10 4 2 8 -4 8 -14 0 -10 -4 -16 -8 -14 -4 3 -9 0 -9 -5 -1 -6 -2
-17 -3 -23 -1 -7 -8 -12 -15 -10 -8 2 -11 -3 -8 -11 7 -17 -27 -38 -50 -31
-17 5 -17 5 0 -6 17 -11 15 -30 -4 -30 -6 0 -7 5 -3 12 4 7 3 8 -5 4 -6 -4 -9
-12 -5 -17 3 -5 0 -16 -6 -24 -15 -18 -45 -20 -34 -3 4 7 3 8 -5 4 -6 -4 -9
-11 -7 -15 10 -15 -23 -47 -80 -76 -33 -16 -61 -33 -64 -36 -10 -12 -115 -46
-132 -44 -10 2 -18 0 -18 -5 0 -4 -25 -7 -55 -6 -30 1 -55 0 -55 -4 0 -3 -10
-6 -22 -7 -22 -2 -22 -1 -4 13 11 8 15 14 8 14 -6 0 -18 -10 -26 -22 -9 -12
-16 -17 -16 -10 0 7 -5 10 -10 7 -19 -12 -62 -16 -55 -5 3 5 -1 19 -9 31 -8
12 -12 28 -9 35 3 8 0 14 -5 14 -6 0 -9 -9 -7 -21 4 -17 2 -19 -10 -9 -10 8
-15 9 -15 2 0 -6 10 -14 21 -17 17 -6 19 -9 8 -17 -11 -8 -10 -9 4 -4 24 8 21
-1 -4 -15 -13 -7 -19 -7 -15 -1 3 6 2 13 -4 17 -5 3 -10 1 -10 -5 0 -6 -5 -8
-11 -4 -8 5 -8 9 1 14 7 4 10 12 6 18 -8 14 16 57 32 57 7 0 17 -7 22 -15 8
-12 9 -10 7 7 -2 12 -7 26 -12 30 -4 5 -5 2 0 -6 6 -10 4 -12 -4 -7 -9 6 -9
12 1 24 34 43 47 54 59 47 8 -6 10 -4 4 5 -10 16 14 31 40 24 19 -6 19 -6 1 8
-17 13 -17 15 -2 21 9 4 16 2 16 -4 0 -6 5 -7 10 -4 6 4 8 10 5 15 -8 13 42
40 62 34 15 -6 15 -4 -2 9 -18 15 -19 16 -2 17 10 0 16 3 14 8 -6 9 19 33 27
25 3 -4 6 -1 6 6 0 7 5 9 10 6 6 -4 7 -12 4 -18 -4 -7 -3 -8 2 -4 5 5 9 16 9
25 0 10 7 16 17 16 10 -1 16 3 15 10 -1 6 4 10 12 8 9 -2 11 3 7 13 -3 9 1 18
9 21 8 4 12 10 9 15 -3 5 3 9 13 10 10 0 13 3 6 6 -7 2 -13 9 -13 15 0 6 7 8
15 5 8 -4 17 -2 20 4 4 5 3 9 -2 8 -20 -3 -23 2 -12 22 15 28 -15 57 -56 53
-21 -2 -25 0 -16 9 6 6 11 15 11 20 0 4 -11 -4 -24 -20 -20 -24 -26 -25 -40
-14 -12 10 -19 11 -29 2 -8 -6 -18 -7 -22 -3 -5 4 -5 1 0 -6 5 -10 10 -11 18
-3 14 14 27 14 27 0 0 -5 -4 -8 -9 -5 -5 3 -28 -12 -52 -33 -24 -21 -49 -36
-56 -34 -7 3 -11 -3 -9 -14 4 -21 -28 -66 -39 -55 -5 4 -6 0 -2 -9 3 -10 -10
-33 -39 -62 -24 -26 -44 -50 -44 -55 0 -10 -43 -52 -54 -52 -4 0 -4 6 0 13 5
8 2 8 -9 -2 -9 -7 -17 -19 -17 -25 0 -6 5 -4 10 4 5 8 10 11 10 5 0 -5 -8 -22
-18 -37 -14 -22 -21 -25 -30 -16 -7 7 -12 8 -12 4 0 -5 -8 -2 -17 5 -15 11
-16 11 -5 -1 17 -20 15 -29 -7 -25 -15 3 -18 -1 -14 -13 5 -14 3 -15 -8 -4 -7
6 -18 12 -23 12 -6 0 -4 -5 4 -10 8 -5 10 -10 4 -10 -6 0 -24 -12 -40 -28 -33
-31 -39 -77 -14 -108 15 -18 14 -18 -15 0 -16 10 -25 13 -18 6 9 -9 7 -19 -7
-43 -11 -17 -16 -35 -13 -40 8 -13 -18 -57 -30 -50 -6 4 -8 0 -4 -10 3 -10 2
-17 -3 -17 -5 0 -12 -9 -15 -20 -3 -11 -11 -20 -16 -20 -6 0 -7 5 -3 12 4 7 3
8 -5 4 -8 -6 -9 -11 -2 -20 8 -9 5 -18 -9 -31 -11 -10 -17 -22 -14 -26 3 -5 0
-9 -6 -9 -6 0 -8 -4 -5 -10 3 -5 2 -10 -3 -10 -6 0 -13 -12 -17 -27 -5 -21 -8
-24 -16 -12 -8 11 -10 10 -8 -6 1 -11 -5 -35 -13 -52 -11 -27 -17 -30 -27 -20
-11 10 -11 8 -1 -12 9 -17 9 -21 0 -16 -7 4 -10 2 -9 -6 2 -8 -7 -36 -19 -62
-12 -27 -23 -59 -25 -72 -1 -13 -6 -27 -9 -31 -4 -3 -4 -13 -1 -22 4 -10 2
-13 -5 -8 -6 3 -14 2 -17 -4 -4 -6 -3 -9 2 -8 8 3 13 -5 13 -23 0 -5 -6 -7
-12 -3 -7 4 -9 3 -5 -1 12 -14 40 -16 64 -4 21 11 34 40 39 89 2 13 9 29 16
35 7 5 13 16 14 23 3 32 5 39 27 62 12 14 23 34 25 45 2 11 9 25 16 30 14 10
15 12 23 44 3 11 12 22 20 25 8 3 11 10 8 16 -3 5 -1 10 6 10 7 0 9 3 6 7 -10
9 31 36 43 28 6 -3 7 1 4 10 -5 11 -2 14 12 8 12 -4 15 -3 10 5 -4 7 0 15 9
18 8 4 14 11 13 18 -4 19 28 70 36 57 4 -6 1 -11 -6 -11 -10 0 -9 -3 2 -9 24
-16 31 -1 12 27 -9 14 -11 23 -4 19 6 -5 12 -4 12 2 0 6 9 11 21 11 13 0 18 4
13 12 -4 7 -3 8 4 4 6 -4 9 -13 6 -20 -3 -9 1 -13 13 -13 11 1 18 -4 17 -14
-1 -9 4 -16 11 -16 7 0 11 7 9 16 -3 9 1 6 7 -6 7 -13 16 -23 21 -23 5 0 6 6
2 13 -4 6 5 1 19 -12 15 -14 25 -27 22 -29 -3 -3 5 -10 17 -16 12 -6 23 -17
26 -25 3 -8 0 -11 -7 -7 -17 11 -13 0 6 -15 11 -10 14 -10 9 -1 -4 6 -2 12 3
12 6 0 11 -8 11 -17 0 -9 3 -14 6 -10 9 9 54 -35 47 -47 -3 -6 -3 -8 2 -4 11
10 47 -11 40 -23 -4 -5 1 -9 9 -9 9 0 16 -5 16 -12 0 -6 3 -9 6 -5 3 3 18 -5
32 -19 15 -13 31 -24 35 -24 7 0 73 -46 87 -60 3 -3 18 -11 33 -18 17 -7 25
-17 21 -24 -4 -7 -3 -8 5 -4 7 5 36 -4 65 -20 53 -27 86 -28 86 -1 0 8 -16 22
-35 33 -19 10 -35 23 -35 28 0 5 -3 6 -7 3 -9 -10 -44 24 -36 36 3 6 1 7 -5 3
-13 -8 -86 40 -115 74 -10 12 -23 18 -30 14 -7 -5 -6 -1 2 10 12 15 12 17 0
14 -8 -2 -13 3 -12 9 2 7 -1 13 -7 13 -13 0 -90 72 -90 85 0 6 -14 19 -30 29
-17 9 -28 21 -25 26 3 5 -4 14 -15 20 -11 6 -19 16 -17 23 1 7 -4 11 -12 9
-11 -2 -12 0 -3 11 8 9 8 17 1 24 -8 8 -2 10 20 8 17 -1 31 1 31 6 0 14 70 11
71 -3 0 -7 4 -4 9 7 6 13 9 15 9 5 1 -10 6 -7 17 8 8 12 20 20 25 17 5 -4 9
-1 9 6 0 6 8 9 20 6 11 -3 20 -1 20 4 0 5 3 8 8 7 7 -1 21 4 82 30 19 8 37 16
40 17 24 8 72 29 103 45 34 18 42 18 38 -3 -1 -5 3 -6 8 -2 6 3 8 12 5 19 -7
19 70 58 85 43 8 -8 14 -7 24 3 7 8 8 12 3 8 -14 -11 -26 -10 -26 2 0 5 12 13
27 16 15 4 36 18 47 32 19 24 20 24 34 6 13 -18 14 -18 7 5 -5 16 -4 21 4 17
7 -5 8 -1 4 10 -5 14 -3 16 11 11 9 -4 15 -3 12 2 -3 4 2 17 10 27 9 10 12 13
8 5 -4 -9 -3 -12 4 -7 6 4 8 14 5 22 -5 13 -1 15 18 10 21 -6 22 -5 6 4 -14 9
-16 15 -6 26 6 8 8 14 3 14 -4 0 1 7 12 16 10 8 13 13 7 9 -7 -3 -13 -1 -13 4
0 6 6 11 13 11 7 0 8 3 2 8 -5 4 -11 15 -13 26 -3 13 1 17 12 13 8 -3 18 -2
21 4 4 5 3 9 -2 8 -22 -4 -33 4 -51 35 -13 22 -17 37 -10 44 6 6 6 12 -3 17
-8 5 -10 4 -5 -3 16 -26 -23 -10 -45 17 -13 16 -27 27 -31 25 -4 -3 -8 0 -8 5
0 6 -6 10 -12 9 -7 -2 -12 3 -10 10 1 8 -2 11 -8 7 -6 -4 -16 -2 -23 3 -7 6
-15 10 -20 10 -19 1 -96 35 -92 42 2 4 -7 5 -22 2 -14 -3 -23 -1 -20 4 3 5 -7
10 -21 10 -93 3 -97 4 -82 15 12 9 11 10 -5 4 -34 -12 -49 -13 -73 -4 -14 6
-31 5 -42 -1 -13 -7 -20 -6 -23 3 -3 9 -5 9 -8 0z m-415 -557 c-7 -19 -20 -21
-30 -4 -4 7 -3 8 5 4 6 -4 14 0 17 9 4 9 8 14 10 12 3 -2 2 -12 -2 -21z m-134
-176 c0 -5 -5 -10 -11 -10 -5 0 -7 5 -4 10 3 6 8 10 11 10 2 0 4 -4 4 -10z
m-16 -35 c-4 -8 -10 -15 -15 -15 -4 0 -6 7 -3 15 4 8 10 15 15 15 4 0 6 -7 3
-15z"/>
<path d="M973 1923 c1 -17 4 -19 14 -11 15 12 18 22 4 14 -5 -4 -11 0 -14 6
-3 7 -4 3 -4 -9z"/>
<path d="M1033 1925 c0 -8 4 -12 9 -9 5 3 6 10 3 15 -9 13 -12 11 -12 -6z"/>
<path d="M830 1919 c0 -5 5 -7 10 -4 6 3 10 8 10 11 0 2 -4 4 -10 4 -5 0 -10
-5 -10 -11z"/>
<path d="M1094 1918 c-4 -7 -4 -10 1 -6 4 4 15 2 24 -5 14 -11 14 -10 2 6 -16
20 -18 21 -27 5z"/>
<path d="M493 1895 c0 -8 4 -12 9 -9 5 3 6 10 3 15 -9 13 -12 11 -12 -6z"/>
<path d="M735 1900 c3 -5 8 -10 11 -10 2 0 4 5 4 10 0 6 -5 10 -11 10 -5 0 -7
-4 -4 -10z"/>
<path d="M776 1902 c-3 -5 1 -9 9 -9 8 0 12 4 9 9 -3 4 -7 8 -9 8 -2 0 -6 -4
-9 -8z"/>
<path d="M900 1906 c0 -2 7 -6 15 -10 8 -3 15 -1 15 4 0 6 -7 10 -15 10 -8 0
-15 -2 -15 -4z"/>
<path d="M2442 1871 c-12 -13 -22 -28 -22 -33 0 -4 -5 -8 -10 -8 -7 0 -7 8 1
23 9 18 9 20 -1 10 -7 -7 -14 -23 -16 -35 -1 -13 -3 -26 -3 -30 -1 -3 -13 -20
-27 -37 -14 -17 -23 -31 -19 -31 4 0 2 -7 -6 -16 -12 -14 -14 -14 -26 2 -16
22 -17 10 -2 -18 8 -15 8 -19 0 -14 -6 4 -11 1 -11 -8 0 -8 -5 -18 -12 -22 -6
-4 -8 -3 -5 3 3 5 0 10 -7 10 -8 0 -12 -7 -9 -15 4 -8 -1 -19 -11 -24 -9 -5
-14 -13 -11 -19 4 -5 -1 -9 -10 -9 -10 0 -13 5 -9 12 5 7 3 8 -5 3 -9 -5 -10
-10 -2 -18 7 -7 -4 -25 -39 -60 -40 -40 -53 -47 -64 -38 -11 9 -16 9 -22 0 -4
-7 -3 -9 4 -5 6 3 13 2 16 -3 8 -12 -4 -42 -14 -36 -4 3 -10 -5 -13 -16 -4
-15 -11 -20 -22 -15 -10 3 -14 2 -9 -5 8 -13 -36 -60 -49 -52 -6 3 -8 2 -4 -3
3 -5 -33 -48 -81 -94 -47 -47 -82 -79 -77 -71 5 9 4 12 -3 7 -6 -4 -9 -13 -5
-21 3 -10 -1 -15 -13 -15 -9 0 -14 -3 -10 -7 8 -8 -53 -73 -70 -73 -6 0 -15
-7 -18 -16 -4 -9 -9 -14 -13 -11 -3 4 -15 -5 -26 -19 -12 -16 -27 -24 -38 -21
-13 3 -16 0 -12 -11 4 -10 2 -13 -5 -8 -7 4 -12 2 -12 -4 0 -6 -4 -8 -10 -5
-5 3 -10 0 -10 -7 -1 -8 -6 -6 -15 6 -8 11 -18 17 -21 13 -4 -3 -16 -1 -27 5
-20 10 -20 11 -3 24 18 12 18 13 -1 12 -13 -2 -19 -10 -20 -31 0 -21 2 -25 8
-16 6 9 9 10 9 2 0 -6 9 -10 19 -8 24 4 35 -19 16 -35 -10 -8 -17 -6 -29 12
-18 25 -24 26 -38 6 -7 -9 -8 -7 -3 7 4 11 8 31 10 45 3 39 4 42 15 35 7 -4 9
2 4 19 -5 20 -2 26 10 26 9 0 16 5 16 11 0 5 -5 7 -11 3 -15 -9 -2 35 16 56 8
8 13 19 13 23 0 4 6 21 12 38 9 21 18 28 29 24 8 -3 12 -3 8 1 -4 4 -1 14 6
22 10 13 9 14 -3 8 -8 -4 -4 2 10 14 14 12 19 18 11 14 -10 -5 -12 -3 -7 5 5
7 14 10 22 7 9 -3 11 0 7 11 -4 11 -2 14 5 9 8 -5 10 -2 6 9 -5 11 0 18 15 22
11 3 18 9 15 14 -7 12 37 69 53 69 7 0 13 5 13 11 0 5 -6 7 -12 4 -7 -4 2 6
19 23 18 16 29 33 25 37 -4 5 -1 5 6 1 7 -4 12 -2 12 6 0 17 45 59 54 51 11
-11 36 -12 36 -1 0 6 -7 8 -15 4 -24 -9 -17 9 8 20 12 6 16 9 9 7 -7 -1 -10 2
-7 7 3 6 12 10 20 10 8 0 17 5 21 12 5 7 2 8 -7 3 -8 -4 -4 3 8 16 12 13 31
34 43 47 11 12 20 31 20 41 0 21 -25 51 -42 51 -6 0 -21 8 -32 18 -20 16 -20
16 -7 -1 17 -22 7 -34 -14 -17 -13 11 -14 10 -9 -6 6 -16 5 -17 -7 -6 -7 6
-18 12 -23 12 -6 0 -5 -4 3 -9 11 -7 9 -12 -10 -22 -13 -7 -26 -12 -29 -12 -3
0 -16 -3 -28 -8 -13 -5 -27 -7 -32 -4 -4 3 -6 -3 -4 -12 2 -10 0 -24 -5 -32
-11 -16 -34 -5 -24 12 4 7 0 6 -10 -2 -18 -14 -23 -26 -8 -16 6 3 15 -4 21
-16 10 -17 9 -20 -1 -14 -9 6 -11 3 -6 -9 4 -10 1 -19 -8 -22 -8 -4 -13 -10
-10 -14 3 -4 -8 -22 -24 -39 -15 -16 -26 -33 -22 -37 3 -3 -3 -4 -13 -2 -11 1
-21 -4 -23 -12 -4 -12 -3 -12 5 -1 5 7 12 9 15 4 3 -4 -12 -34 -32 -64 -21
-31 -41 -64 -44 -74 -5 -11 -13 -15 -23 -11 -14 5 -15 4 -5 -8 7 -9 8 -17 2
-20 -5 -3 -12 0 -15 6 -3 7 -3 3 0 -9 3 -15 1 -23 -7 -23 -7 0 -9 -3 -6 -7 4
-3 0 -15 -10 -25 -9 -10 -13 -18 -9 -18 4 0 0 -7 -8 -16 -9 -8 -14 -20 -11
-25 4 -5 2 -9 -2 -9 -8 0 -34 -54 -37 -75 -1 -5 -11 -9 -23 -9 -13 1 -20 -3
-17 -7 3 -5 9 -7 14 -4 5 3 11 1 15 -5 3 -5 1 -10 -6 -10 -7 0 -9 -3 -6 -7 4
-3 -1 -12 -11 -20 -9 -8 -11 -12 -4 -8 14 7 16 -4 2 -25 -8 -12 -10 -12 -10
-1 0 8 -3 11 -6 8 -4 -4 -1 -13 6 -22 7 -8 8 -15 3 -15 -5 0 -18 -7 -29 -15
-18 -13 -18 -14 6 -9 14 2 20 2 13 -2 -7 -3 -10 -11 -7 -19 3 -7 0 -16 -7 -21
-7 -4 -10 -3 -5 4 3 6 2 13 -3 16 -10 7 -9 -13 1 -29 4 -6 3 -17 -3 -25 -5 -8
-9 -26 -9 -39 0 -21 -2 -22 -17 -10 -16 12 -17 12 -6 -2 7 -9 9 -20 5 -24 -4
-5 -2 -5 4 -2 7 4 14 -3 18 -17 10 -39 69 -48 125 -19 38 20 42 21 27 4 -12
-13 -14 -21 -6 -26 6 -3 9 -3 8 2 -2 4 5 18 14 31 11 17 17 20 21 10 4 -9 6
-8 6 3 1 9 7 19 14 22 6 2 38 26 70 51 31 26 61 45 66 42 5 -3 8 2 7 11 0 10
9 20 24 24 14 4 21 7 16 8 -6 1 11 21 36 46 45 43 67 58 52 33 -4 -7 -3 -8 5
-4 6 4 9 12 5 17 -8 13 16 40 29 32 5 -3 7 -2 4 4 -8 12 36 56 46 46 4 -3 7 0
7 9 0 17 54 68 72 68 6 0 9 3 5 6 -9 9 45 59 65 60 31 2 33 4 18 14 -8 5 -10
10 -4 10 19 0 24 -13 11 -28 -6 -8 -13 -23 -13 -34 -3 -35 -4 -38 -21 -38 -15
0 -16 2 -3 10 13 9 13 10 0 10 -13 0 -13 2 0 11 13 9 12 10 -3 5 -12 -4 -16
-2 -11 6 4 7 3 8 -5 4 -9 -6 -9 -11 1 -24 11 -13 10 -15 -5 -9 -11 4 -16 3
-12 -3 6 -9 -9 -15 -29 -11 -5 1 -3 -6 4 -16 22 -28 24 -29 17 -11 -3 10 0 19
9 22 24 9 26 8 14 -15 -7 -11 -9 -23 -7 -26 3 -2 8 5 12 16 6 21 25 29 25 11
0 -5 -4 -10 -8 -10 -4 0 -13 -20 -20 -45 -7 -25 -16 -45 -21 -45 -4 0 -7 -12
-5 -26 2 -19 -1 -24 -12 -20 -8 3 -13 2 -9 -3 3 -5 2 -11 -2 -14 -5 -2 -2 -2
5 -1 15 4 14 -64 -1 -73 -5 -3 -3 -9 4 -14 8 -5 10 -9 4 -9 -5 0 -10 -17 -9
-37 0 -21 -3 -55 -7 -75 -4 -23 -2 -38 4 -38 6 0 6 -5 -1 -13 -7 -8 -6 -18 4
-31 7 -10 11 -23 8 -27 -3 -5 4 -9 15 -9 11 0 23 5 26 10 5 8 12 7 23 -2 13
-11 14 -11 7 2 -12 18 -7 131 6 145 5 5 9 14 9 20 0 5 -5 3 -10 -5 -8 -12 -10
-10 -10 8 0 16 4 21 13 16 9 -5 9 -4 1 5 -15 16 -6 53 10 44 6 -4 6 0 -2 9
-13 16 -7 48 10 48 5 0 6 9 3 20 -4 13 -2 20 6 20 7 0 10 3 6 6 -3 4 0 21 8
39 7 19 10 37 7 40 -4 4 4 4 18 0 23 -6 23 -6 7 7 -17 13 -16 17 15 80 18 37
41 70 52 73 13 5 15 9 6 15 -9 6 -9 12 -1 29 7 11 14 21 17 21 3 0 2 -6 -2
-12 -4 -7 -4 -10 1 -6 4 4 9 22 10 39 2 17 9 35 16 40 8 4 14 12 14 16 1 4 7
19 14 32 l13 24 20 -24 19 -24 -15 31 c-15 31 -15 32 19 67 19 20 35 40 35 46
0 15 51 51 63 44 5 -3 7 -1 4 5 -4 5 -4 17 -1 26 5 12 10 13 26 5 18 -10 18
-9 8 10 -9 17 -8 21 5 21 9 0 14 4 10 9 -3 5 -1 12 4 15 5 4 12 -2 14 -11 3
-11 5 -8 6 10 1 30 3 31 34 16 20 -9 20 -9 5 4 -10 8 -18 17 -18 20 0 4 8 4
18 1 13 -5 14 -4 3 4 -8 6 -12 19 -8 31 3 12 2 19 -3 16 -7 -4 -24 23 -22 35
0 3 -20 6 -46 6 -37 0 -52 -5 -70 -25z m-305 -497 c-3 -3 -12 -4 -19 -1 -8 3
-5 6 6 6 11 1 17 -2 13 -5z m-607 -419 c11 -13 10 -14 -4 -9 -9 3 -16 10 -16
15 0 13 6 11 20 -6z"/>
<path d="M797 1871 c-10 -13 -10 -14 3 -5 8 6 23 10 32 9 10 -2 20 0 22 4 9
14 -45 6 -57 -8z"/>
<path d="M890 1880 c0 -5 5 -10 10 -10 6 0 10 5 10 10 0 6 -4 10 -10 10 -5 0
-10 -4 -10 -10z"/>
<path d="M2577 1879 c7 -7 15 -10 18 -7 3 3 -2 9 -12 12 -14 6 -15 5 -6 -5z"/>
<path d="M1251 1867 c2 -1 13 -9 24 -17 19 -14 19 -14 6 3 -7 9 -18 17 -24 17
-6 0 -8 -1 -6 -3z"/>
<path d="M775 1841 c-3 -6 -3 -11 2 -10 20 3 25 -2 13 -16 -7 -8 -17 -12 -24
-8 -7 4 -7 2 1 -7 9 -10 15 -9 29 4 15 16 15 19 2 33 -11 10 -18 12 -23 4z"/>
<path d="M359 1813 c-13 -16 -12 -17 4 -4 9 7 17 15 17 17 0 8 -8 3 -21 -13z"/>
<path d="M1035 1820 c-3 -5 -1 -10 4 -10 6 0 11 5 11 10 0 6 -2 10 -4 10 -3 0
-8 -4 -11 -10z"/>
<path d="M1306 1818 c4 -5 12 -7 20 -4 8 3 14 -1 14 -9 0 -8 5 -15 10 -15 20
0 -7 34 -28 35 -12 1 -19 -2 -16 -7z"/>
<path d="M2355 1810 c-3 -6 1 -7 9 -4 18 7 21 14 7 14 -6 0 -13 -4 -16 -10z"/>
<path d="M1790 1801 c0 -6 4 -13 10 -16 6 -3 7 1 4 9 -7 18 -14 21 -14 7z"/>
<path d="M1826 1802 c-2 -4 4 -8 14 -8 10 0 16 4 14 8 -3 4 -9 8 -14 8 -5 0
-11 -4 -14 -8z"/>
<path d="M1315 1780 c-3 -5 -1 -10 4 -10 6 0 11 5 11 10 0 6 -2 10 -4 10 -3 0
-8 -4 -11 -10z"/>
<path d="M2347 1775 c3 -8 9 -12 14 -9 12 7 11 11 -5 17 -10 4 -13 1 -9 -8z"/>
<path d="M710 1764 c-8 -8 -9 -14 -4 -13 22 4 35 -2 28 -13 -5 -7 -3 -8 6 -3
10 6 10 11 -3 20 -9 7 -14 15 -10 18 3 4 4 7 1 7 -3 0 -11 -7 -18 -16z"/>
<path d="M460 1766 c0 -2 9 -6 20 -9 11 -3 18 -1 14 4 -5 9 -34 13 -34 5z"/>
<path d="M2318 1753 c7 -3 16 -2 19 1 4 3 -2 6 -13 5 -11 0 -14 -3 -6 -6z"/>
<path d="M447 1716 c-4 -10 -1 -13 9 -9 15 6 19 23 5 23 -5 0 -11 -7 -14 -14z"/>
<path d="M675 1720 c3 -5 11 -10 16 -10 6 0 7 5 4 10 -3 6 -11 10 -16 10 -6 0
-7 -4 -4 -10z"/>
<path d="M1000 1726 c0 -2 8 -10 18 -17 15 -13 16 -12 3 4 -13 16 -21 21 -21
13z"/>
<path d="M1990 1726 c0 -2 7 -7 16 -10 8 -3 12 -2 9 4 -6 10 -25 14 -25 6z"/>
<path d="M2320 1719 c0 -5 5 -7 10 -4 6 3 10 8 10 11 0 2 -4 4 -10 4 -5 0 -10
-5 -10 -11z"/>
<path d="M2525 1720 c3 -5 8 -10 11 -10 2 0 4 5 4 10 0 6 -5 10 -11 10 -5 0
-7 -4 -4 -10z"/>
<path d="M257 1699 c7 -7 15 -10 18 -7 3 3 -2 9 -12 12 -14 6 -15 5 -6 -5z"/>
<path d="M1325 1700 c-12 -19 -14 -50 -4 -50 6 0 9 6 6 13 -2 6 0 20 5 30 9
18 4 24 -7 7z"/>
<path d="M674 1689 c-12 -20 12 -31 27 -12 13 17 13 17 -5 3 -18 -14 -19 -13
-13 3 7 19 2 23 -9 6z"/>
<path d="M1710 1679 c0 -5 5 -7 10 -4 6 3 10 8 10 11 0 2 -4 4 -10 4 -5 0 -10
-5 -10 -11z"/>
<path d="M927 1659 c7 -7 15 -10 18 -7 3 3 -2 9 -12 12 -14 6 -15 5 -6 -5z"/>
<path d="M2480 1660 c-12 -7 -10 -9 7 -7 12 0 19 5 17 9 -6 10 -6 10 -24 -2z"/>
<path d="M1955 1651 c-3 -5 -2 -12 3 -15 5 -3 9 1 9 9 0 17 -3 19 -12 6z"/>
<path d="M2235 1650 c3 -5 8 -10 11 -10 2 0 4 5 4 10 0 6 -5 10 -11 10 -5 0
-7 -4 -4 -10z"/>
<path d="M2434 1646 c-10 -8 -17 -16 -14 -19 3 -2 14 4 24 14 23 22 18 25 -10
5z"/>
<path d="M634 1624 c-18 -14 -18 -15 4 -4 12 6 22 13 22 15 0 8 -5 6 -26 -11z"/>
<path d="M1315 1631 c-3 -5 -2 -12 3 -15 5 -3 9 1 9 9 0 17 -3 19 -12 6z"/>
<path d="M1700 1630 c-9 -6 -10 -10 -3 -10 6 0 15 5 18 10 8 12 4 12 -15 0z"/>
<path d="M873 1610 c-1 -11 1 -22 5 -24 4 -2 8 7 8 20 1 13 -1 24 -5 24 -4 0
-7 -9 -8 -20z"/>
<path d="M2426 1598 c3 -5 10 -6 15 -3 13 9 11 12 -6 12 -8 0 -12 -4 -9 -9z"/>
<path d="M2395 1591 c-3 -5 -2 -12 3 -15 5 -3 9 1 9 9 0 17 -3 19 -12 6z"/>
<path d="M550 1586 c0 -2 7 -7 16 -10 8 -3 12 -2 9 4 -6 10 -25 14 -25 6z"/>
<path d="M601 1573 c-7 -8 -11 -16 -8 -19 2 -2 10 2 17 11 17 20 9 27 -9 8z"/>
<path d="M1846 1574 c-11 -7 -18 -16 -15 -18 2 -2 13 2 23 10 11 7 18 16 15
18 -2 2 -13 -2 -23 -10z"/>
<path d="M2200 1581 c0 -7 -5 -9 -12 -5 -7 5 -8 3 -3 -5 5 -9 10 -10 18 -2 6
6 8 14 4 18 -4 3 -7 1 -7 -6z"/>
<path d="M436 1558 c3 -5 10 -6 15 -3 13 9 11 12 -6 12 -8 0 -12 -4 -9 -9z"/>
<path d="M820 1559 c0 -5 5 -7 10 -4 6 3 10 8 10 11 0 2 -4 4 -10 4 -5 0 -10
-5 -10 -11z"/>
<path d="M2156 1562 c-3 -5 1 -9 9 -9 8 0 12 4 9 9 -3 4 -7 8 -9 8 -2 0 -6 -4
-9 -8z"/>
<path d="M2361 1556 c-9 -11 -9 -16 0 -22 7 -4 9 -3 5 4 -3 6 2 15 11 21 10 6
13 11 7 11 -6 0 -17 -6 -23 -14z"/>
<path d="M1615 1540 c-3 -5 -1 -10 4 -10 6 0 11 5 11 10 0 6 -2 10 -4 10 -3 0
-8 -4 -11 -10z"/>
<path d="M1850 1539 c0 -5 5 -7 10 -4 6 3 10 8 10 11 0 2 -4 4 -10 4 -5 0 -10
-5 -10 -11z"/>
<path d="M479 1513 c-13 -16 -12 -17 4 -4 9 7 17 15 17 17 0 8 -8 3 -21 -13z"/>
<path d="M790 1519 c0 -5 5 -7 10 -4 6 3 10 8 10 11 0 2 -4 4 -10 4 -5 0 -10
-5 -10 -11z"/>
<path d="M1815 1520 c-3 -6 1 -7 9 -4 18 7 21 14 7 14 -6 0 -13 -4 -16 -10z"/>
<path d="M2125 1520 c-3 -5 -1 -10 4 -10 6 0 11 5 11 10 0 6 -2 10 -4 10 -3 0
-8 -4 -11 -10z"/>
<path d="M1615 1511 c-3 -5 0 -13 6 -17 7 -4 9 -3 5 4 -3 5 0 13 6 15 9 4 10
6 1 6 -6 1 -14 -3 -18 -8z"/>
<path d="M510 1499 c0 -5 5 -9 10 -9 6 0 12 0 15 0 14 0 8 13 -7 16 -10 1 -18
-2 -18 -7z"/>
<path d="M734 1486 c1 -14 5 -29 9 -32 3 -3 4 6 3 20 -2 15 -6 29 -9 32 -3 4
-5 -6 -3 -20z"/>
<path d="M2321 1496 c-9 -11 -9 -16 0 -22 7 -4 9 -3 5 4 -3 5 0 12 6 15 7 2
10 7 7 11 -3 4 -12 0 -18 -8z"/>
<path d="M1594 1486 c1 -8 5 -18 8 -22 4 -3 5 1 4 10 -1 8 -5 18 -8 22 -4 3
-5 -1 -4 -10z"/>
<path d="M1781 1497 c2 -1 13 -9 24 -17 19 -14 19 -14 6 3 -7 9 -18 17 -24 17
-6 0 -8 -1 -6 -3z"/>
<path d="M455 1480 c-3 -5 -1 -10 4 -10 6 0 11 5 11 10 0 6 -2 10 -4 10 -3 0
-8 -4 -11 -10z"/>
<path d="M1155 1460 c3 -5 8 -10 11 -10 2 0 4 5 4 10 0 6 -5 10 -11 10 -5 0
-7 -4 -4 -10z"/>
<path d="M1580 1449 c0 -6 -6 -9 -13 -6 -8 3 -14 -1 -14 -8 0 -10 5 -11 19 -4
16 9 25 29 13 29 -3 0 -5 -5 -5 -11z"/>
<path d="M1773 1445 c0 -8 4 -12 9 -9 5 3 6 10 3 15 -9 13 -12 11 -12 -6z"/>
<path d="M2310 1451 c0 -7 -5 -9 -12 -5 -7 5 -8 3 -3 -5 5 -9 10 -10 18 -2 6
6 8 14 4 18 -4 3 -7 1 -7 -6z"/>
<path d="M670 1440 c0 -5 5 -10 11 -10 5 0 7 5 4 10 -3 6 -8 10 -11 10 -2 0
-4 -4 -4 -10z"/>
<path d="M1073 1415 c0 -8 4 -12 9 -9 5 3 6 10 3 15 -9 13 -12 11 -12 -6z"/>
<path d="M2287 1409 c4 -13 8 -18 11 -10 2 7 -1 18 -6 23 -8 8 -9 4 -5 -13z"/>
<path d="M667 1353 c3 -7 8 -13 12 -13 4 0 8 6 8 13 0 8 -6 14 -13 14 -7 0
-10 -6 -7 -14z"/>
<path d="M2250 1365 c0 -7 30 -13 34 -7 3 4 -4 9 -15 9 -10 1 -19 0 -19 -2z"/>
<path d="M717 1339 c7 -7 15 -10 18 -7 3 3 -2 9 -12 12 -14 6 -15 5 -6 -5z"/>
<path d="M870 1340 c-9 -6 -10 -10 -3 -10 6 0 15 5 18 10 8 12 4 12 -15 0z"/>
<path d="M1513 1335 c0 -8 4 -12 9 -9 5 3 6 10 3 15 -9 13 -12 11 -12 -6z"/>
<path d="M1686 1342 c-3 -5 1 -9 9 -9 8 0 12 4 9 9 -3 4 -7 8 -9 8 -2 0 -6 -4
-9 -8z"/>
<path d="M340 1336 c0 -2 7 -7 16 -10 8 -3 12 -2 9 4 -6 10 -25 14 -25 6z"/>
<path d="M686 1318 c3 -5 10 -6 15 -3 13 9 11 12 -6 12 -8 0 -12 -4 -9 -9z"/>
<path d="M1481 1316 c-9 -11 -9 -16 1 -22 7 -4 10 -4 6 1 -4 4 -3 14 3 22 6 7
9 13 6 13 -2 0 -10 -6 -16 -14z"/>
<path d="M2070 1319 c0 -4 6 -9 13 -12 8 -3 14 0 14 7 0 7 -6 13 -14 13 -7 0
-13 -4 -13 -8z"/>
<path d="M2255 1320 c3 -5 8 -10 11 -10 2 0 4 5 4 10 0 6 -5 10 -11 10 -5 0
-7 -4 -4 -10z"/>
<path d="M2230 1316 c0 -2 8 -10 18 -17 15 -13 16 -12 3 4 -13 16 -21 21 -21
13z"/>
<path d="M1675 1300 c3 -5 8 -10 11 -10 2 0 4 5 4 10 0 6 -5 10 -11 10 -5 0
-7 -4 -4 -10z"/>
<path d="M330 1279 c0 -5 5 -7 10 -4 6 3 10 8 10 11 0 2 -4 4 -10 4 -5 0 -10
-5 -10 -11z"/>
<path d="M1640 1275 c-7 -9 -11 -17 -9 -20 3 -2 10 5 17 15 14 24 10 26 -8 5z"/>
<path d="M2216 1282 c-2 -4 0 -14 6 -22 8 -12 9 -12 5 2 -3 9 -1 19 6 22 9 3
9 5 0 5 -6 1 -14 -3 -17 -7z"/>
<path d="M1457 1259 c7 -7 15 -10 18 -7 3 3 -2 9 -12 12 -14 6 -15 5 -6 -5z"/>
<path d="M1873 1255 c0 -8 4 -12 9 -9 5 3 6 10 3 15 -9 13 -12 11 -12 -6z"/>
<path d="M886 1238 c3 -5 10 -6 15 -3 13 9 11 12 -6 12 -8 0 -12 -4 -9 -9z"/>
<path d="M1590 1242 c0 -5 7 -9 15 -9 8 0 12 4 9 9 -3 4 -9 8 -15 8 -5 0 -9
-4 -9 -8z"/>
<path d="M1995 1230 c3 -5 8 -10 11 -10 2 0 4 5 4 10 0 6 -5 10 -11 10 -5 0
-7 -4 -4 -10z"/>
<path d="M2185 1230 c-3 -6 1 -7 9 -4 18 7 21 14 7 14 -6 0 -13 -4 -16 -10z"/>
<path d="M305 1215 c17 -14 18 -17 5 -26 -12 -9 -12 -10 -1 -7 24 7 24 26 -1
38 -22 11 -22 11 -3 -5z"/>
<path d="M765 1221 c-3 -6 -14 -8 -24 -6 -17 3 -21 -9 -11 -35 1 -3 1 -9 0
-15 -1 -5 2 -7 6 -3 4 4 13 3 20 -3 22 -18 37 0 21 25 -13 20 -13 24 1 34 10
6 12 11 5 11 -6 1 -14 -3 -18 -8z m10 -59 c-8 -9 -45 30 -38 41 4 6 14 1 25
-13 10 -12 16 -25 13 -28z"/>
<path d="M1970 1220 c0 -5 5 -10 11 -10 5 0 7 5 4 10 -3 6 -8 10 -11 10 -2 0
-4 -4 -4 -10z"/>
<path d="M795 1210 c-3 -6 1 -7 9 -4 18 7 21 14 7 14 -6 0 -13 -4 -16 -10z"/>
<path d="M1575 1211 c-3 -5 -2 -12 3 -15 5 -3 9 1 9 9 0 17 -3 19 -12 6z"/>
<path d="M1994 1188 l-19 -23 23 19 c21 18 27 26 19 26 -2 0 -12 -10 -23 -22z"/>
<path d="M2035 1200 c3 -6 0 -10 -7 -10 -9 0 -9 -3 2 -10 13 -8 8 -14 -11 -12
-3 1 -6 -5 -6 -13 0 -7 6 -11 14 -8 12 5 15 11 12 29 0 4 5 10 11 14 8 5 7 9
-5 13 -9 4 -13 3 -10 -3z"/>
<path d="M2175 1200 c3 -5 8 -10 11 -10 2 0 4 5 4 10 0 6 -5 10 -11 10 -5 0
-7 -4 -4 -10z"/>
<path d="M794 1182 c4 -3 14 -7 22 -8 9 -1 13 0 10 4 -4 3 -14 7 -22 8 -9 1
-13 0 -10 -4z"/>
<path d="M277 1173 c-10 -9 -9 -23 1 -23 5 0 9 7 9 15 0 17 -1 18 -10 8z"/>
<path d="M467 1174 c-8 -8 1 -24 14 -24 5 0 9 7 9 15 0 15 -12 20 -23 9z"/>
<path d="M1924 1158 l-19 -23 23 19 c21 18 27 26 19 26 -2 0 -12 -10 -23 -22z"/>
<path d="M510 1160 c-9 -6 -10 -10 -3 -10 6 0 15 5 18 10 8 12 4 12 -15 0z"/>
<path d="M1550 1156 c0 -8 4 -17 9 -20 5 -4 7 3 4 14 -6 23 -13 26 -13 6z"/>
<path d="M799 1158 c-5 -19 -8 -50 -4 -46 7 7 15 48 9 48 -2 0 -4 -1 -5 -2z"/>
<path d="M2155 1141 c-3 -5 -2 -12 3 -15 5 -3 9 1 9 9 0 17 -3 19 -12 6z"/>
<path d="M590 1126 c0 -2 8 -10 18 -17 15 -13 16 -12 3 4 -13 16 -21 21 -21
13z"/>
<path d="M415 1111 c-3 -5 -2 -12 3 -15 5 -3 9 1 9 9 0 17 -3 19 -12 6z"/>
<path d="M810 1111 c0 -6 4 -13 10 -16 6 -3 7 1 4 9 -7 18 -14 21 -14 7z"/>
<path d="M445 1100 c-3 -6 1 -7 9 -4 18 7 21 14 7 14 -6 0 -13 -4 -16 -10z"/>
<path d="M536 1093 c-6 -14 -5 -15 5 -6 7 7 10 15 7 18 -3 3 -9 -2 -12 -12z"/>
<path d="M1970 1099 c0 -5 5 -7 10 -4 6 3 10 8 10 11 0 2 -4 4 -10 4 -5 0 -10
-5 -10 -11z"/>
<path d="M1595 1089 c-4 -6 -5 -12 -2 -15 2 -3 7 2 10 11 7 17 1 20 -8 4z"/>
<path d="M586 1082 c-2 -4 4 -8 14 -8 10 0 16 4 14 8 -3 4 -9 8 -14 8 -5 0
-11 -4 -14 -8z"/>
<path d="M215 1069 c-4 -6 -5 -12 -2 -15 2 -3 7 2 10 11 7 17 1 20 -8 4z"/>
<path d="M856 1067 c3 -10 9 -15 12 -12 3 3 0 11 -7 18 -10 9 -11 8 -5 -6z"/>
<path d="M1555 1071 c-3 -5 -2 -12 3 -15 5 -3 9 1 9 9 0 17 -3 19 -12 6z"/>
<path d="M820 1066 c0 -2 8 -10 18 -17 15 -13 16 -12 3 4 -13 16 -21 21 -21
13z"/>
<path d="M1375 1060 c-3 -5 -1 -10 4 -10 6 0 11 5 11 10 0 6 -2 10 -4 10 -3 0
-8 -4 -11 -10z"/>
<path d="M1620 1060 c-12 -7 -10 -9 7 -7 12 0 19 5 17 9 -6 10 -6 10 -24 -2z"/>
<path d="M1666 1062 c-3 -5 1 -9 9 -9 8 0 12 4 9 9 -3 4 -7 8 -9 8 -2 0 -6 -4
-9 -8z"/>
<path d="M615 1051 c-3 -5 -2 -12 3 -15 5 -3 9 1 9 9 0 17 -3 19 -12 6z"/>
<path d="M1593 1030 c-1 -11 2 -20 7 -20 4 0 7 7 6 15 -3 23 -12 26 -13 5z"/>
<path d="M1976 1042 c-2 -4 -1 -14 4 -22 7 -11 9 -9 7 8 -1 24 -3 26 -11 14z"/>
<path d="M2115 1031 c-3 -5 -2 -12 3 -15 5 -3 9 1 9 9 0 17 -3 19 -12 6z"/>
<path d="M670 1016 c0 -2 8 -10 18 -17 15 -13 16 -12 3 4 -13 16 -21 21 -21
13z"/>
<path d="M715 980 c3 -5 8 -10 11 -10 2 0 4 5 4 10 0 6 -5 10 -11 10 -5 0 -7
-4 -4 -10z"/>
<path d="M1546 968 c3 -5 10 -6 15 -3 13 9 11 12 -6 12 -8 0 -12 -4 -9 -9z"/>
<path d="M1696 962 c-3 -5 1 -9 9 -9 8 0 12 4 9 9 -3 4 -7 8 -9 8 -2 0 -6 -4
-9 -8z"/>
<path d="M1995 949 c-4 -6 -5 -12 -2 -15 2 -3 7 2 10 11 7 17 1 20 -8 4z"/>
<path d="M286 918 c3 -5 10 -6 15 -3 13 9 11 12 -6 12 -8 0 -12 -4 -9 -9z"/>
<path d="M974 918 c-4 -7 -3 -10 1 -5 5 4 18 -1 29 -10 21 -18 21 -18 2 5 -22
26 -23 26 -32 10z"/>
<path d="M806 902 c-3 -5 1 -9 9 -9 8 0 12 4 9 9 -3 4 -7 8 -9 8 -2 0 -6 -4
-9 -8z"/>
<path d="M1636 898 c3 -5 10 -6 15 -3 13 9 11 12 -6 12 -8 0 -12 -4 -9 -9z"/>
<path d="M1606 878 c3 -5 10 -6 15 -3 13 9 11 12 -6 12 -8 0 -12 -4 -9 -9z"/>
<path d="M870 866 c0 -2 9 -6 20 -9 11 -3 18 -1 14 4 -5 9 -34 13 -34 5z"/>
<path d="M95 839 c-3 -4 2 -6 10 -5 21 3 28 13 10 13 -9 0 -18 -4 -20 -8z"/>
<path d="M870 820 c0 -5 5 -10 11 -10 5 0 7 5 4 10 -3 6 -8 10 -11 10 -2 0 -4
-4 -4 -10z"/>
<path d="M953 795 c0 -8 4 -12 9 -9 5 3 6 10 3 15 -9 13 -12 11 -12 -6z"/>
<path d="M1039 733 c-13 -16 -12 -17 4 -4 9 7 17 15 17 17 0 8 -8 3 -21 -13z"/>
<path d="M2439 743 c-1 -5 -1 -12 0 -17 1 -5 -8 -6 -21 -3 -12 4 -27 2 -34 -4
-20 -17 -65 -21 -83 -7 -14 12 -15 11 -2 -4 11 -15 11 -18 0 -19 -8 0 -24 -2
-37 -5 -17 -3 -21 0 -16 8 4 7 -1 6 -12 -3 -18 -15 -58 -26 -127 -35 -16 -2
-33 -7 -39 -10 -7 -5 -8 -2 -3 7 7 11 6 12 -6 3 -8 -6 -22 -10 -31 -9 -10 2
-18 0 -18 -4 0 -4 -10 -7 -22 -8 -13 0 -63 -4 -113 -8 -128 -10 -274 -12 -269
-3 3 4 1 8 -5 8 -5 0 -12 -6 -14 -12 -4 -10 -8 -10 -15 1 -9 12 -13 12 -26 2
-9 -8 -16 -9 -16 -4 0 6 -20 8 -46 5 -37 -3 -45 -2 -38 9 6 12 5 12 -9 0 -15
-12 -20 -11 -40 5 -17 15 -19 15 -8 2 11 -15 10 -17 -11 -12 -12 3 -52 5 -88
5 -45 -1 -60 2 -50 9 9 6 10 10 3 10 -6 0 -14 -4 -17 -9 -3 -5 -20 -6 -38 -4
-18 3 -40 5 -49 5 -12 0 -16 7 -14 29 1 16 -1 26 -6 24 -4 -3 -6 -15 -4 -26 5
-25 -20 -36 -42 -18 -13 11 -15 11 -9 1 6 -9 2 -11 -16 -7 -12 3 -69 6 -125 8
-57 1 -103 4 -103 7 0 7 -123 3 -162 -4 -15 -3 -30 -1 -34 5 -4 8 -9 7 -15 -2
-8 -12 -10 -12 -18 0 -5 8 -10 9 -12 3 -2 -6 -39 -12 -81 -14 -43 -2 -78 -6
-78 -9 0 -4 -8 -6 -17 -6 -10 1 -52 -5 -93 -13 -41 -7 -84 -14 -95 -16 -11 -1
-20 -3 -20 -4 0 -8 -42 -6 -52 2 -8 6 -16 8 -20 4 -3 -3 -1 -6 5 -6 7 0 12 -5
12 -11 0 -5 -4 -8 -9 -4 -5 3 -13 1 -16 -5 -5 -8 -11 -8 -20 0 -18 15 -47 -30
-34 -52 10 -17 13 -17 74 0 22 6 52 10 67 8 15 -2 25 1 22 5 -3 5 4 9 16 9 13
0 19 -4 14 -12 -4 -7 -3 -8 5 -4 6 4 8 12 5 18 -4 6 3 9 17 7 13 -1 32 1 41 5
41 15 49 16 42 4 -5 -7 -3 -8 7 -2 18 11 45 16 91 18 21 0 38 3 38 6 0 3 12 6
27 7 16 0 52 2 81 4 39 4 51 1 48 -8 -3 -7 0 -15 6 -19 6 -4 8 -3 5 3 -4 6 0
16 8 23 10 8 15 9 15 1 0 -7 8 -8 23 -3 27 10 95 8 121 -3 14 -6 17 -5 11 4
-6 10 -3 11 11 3 11 -6 24 -11 29 -12 6 -1 9 -6 7 -12 -1 -5 2 -7 8 -3 6 3 8
10 5 15 -3 5 25 7 62 4 38 -2 88 -4 113 -5 24 0 53 -5 63 -11 15 -7 18 -7 12
2 -5 8 -2 10 11 6 21 -6 179 -17 294 -20 48 -1 75 -6 75 -13 0 -6 4 -15 8 -20
5 -4 7 -2 5 6 -3 15 49 35 57 22 2 -5 25 -7 50 -5 27 2 44 0 40 -5 -3 -5 0
-13 6 -17 8 -4 9 -3 5 5 -10 15 7 20 81 25 44 2 61 0 56 -8 -5 -7 -2 -7 8 1 8
6 47 14 87 16 41 3 76 8 79 11 4 3 13 0 21 -7 13 -9 14 -9 8 1 -5 8 1 12 21
13 41 2 58 5 161 28 51 12 97 19 103 16 5 -4 9 -2 9 3 0 5 6 9 13 10 22 2 42
7 56 16 10 7 12 5 6 -3 -4 -7 4 -5 19 4 15 10 37 15 51 13 13 -3 22 -1 19 3
-3 5 1 9 9 9 18 0 28 22 17 40 -6 9 -20 11 -50 6 -27 -4 -39 -3 -35 4 3 5 4
10 1 10 -3 0 -7 -3 -7 -7z"/>
<path d="M1075 721 c-3 -5 -2 -12 3 -15 5 -3 9 1 9 9 0 17 -3 19 -12 6z"/>
<path d="M1035 700 c-3 -5 -1 -10 4 -10 6 0 11 5 11 10 0 6 -2 10 -4 10 -3 0
-8 -4 -11 -10z"/>
<path d="M1167 699 c7 -7 15 -10 18 -7 3 3 -2 9 -12 12 -14 6 -15 5 -6 -5z"/>
<path d="M2095 700 c-3 -5 -1 -10 4 -10 6 0 11 5 11 10 0 6 -2 10 -4 10 -3 0
-8 -4 -11 -10z"/>
<path d="M155 660 c-3 -5 -1 -10 4 -10 6 0 11 5 11 10 0 6 -2 10 -4 10 -3 0
-8 -4 -11 -10z"/>
<path d="M370 660 c0 -5 5 -10 11 -10 5 0 7 5 4 10 -3 6 -8 10 -11 10 -2 0 -4
-4 -4 -10z"/>
<path d="M1150 666 c0 -2 7 -7 16 -10 8 -3 12 -2 9 4 -6 10 -25 14 -25 6z"/>
<path d="M1975 661 c-3 -5 -2 -12 3 -15 5 -3 9 1 9 9 0 17 -3 19 -12 6z"/>
<path d="M2455 660 c3 -5 8 -10 11 -10 2 0 4 5 4 10 0 6 -5 10 -11 10 -5 0 -7
-4 -4 -10z"/>
<path d="M174 639 c-3 -6 -1 -16 5 -22 9 -9 10 -7 5 8 -7 18 -6 19 9 6 10 -8
19 -12 22 -10 2 3 -4 10 -15 17 -13 8 -21 8 -26 1z"/>
<path d="M270 646 c0 -2 7 -7 16 -10 8 -3 12 -2 9 4 -6 10 -25 14 -25 6z"/>
<path d="M315 640 c3 -5 8 -10 11 -10 2 0 4 5 4 10 0 6 -5 10 -11 10 -5 0 -7
-4 -4 -10z"/>
<path d="M150 621 c0 -6 4 -13 10 -16 6 -3 7 1 4 9 -7 18 -14 21 -14 7z"/>
<path d="M575 580 c3 -5 8 -10 11 -10 2 0 4 5 4 10 0 6 -5 10 -11 10 -5 0 -7
-4 -4 -10z"/>
<path d="M1280 560 c-9 -6 -10 -10 -3 -10 6 0 15 5 18 10 8 12 4 12 -15 0z"/>
<path d="M1455 540 c-3 -5 -1 -10 4 -10 6 0 11 5 11 10 0 6 -2 10 -4 10 -3 0
-8 -4 -11 -10z"/>
<path d="M1810 539 c0 -5 5 -7 10 -4 6 3 10 8 10 11 0 2 -4 4 -10 4 -5 0 -10
-5 -10 -11z"/>
<path d="M1895 540 c-3 -5 -1 -10 4 -10 6 0 11 5 11 10 0 6 -2 10 -4 10 -3 0
-8 -4 -11 -10z"/>
</g>
</svg>
